<?xml version="1.0" encoding="UTF-8" standalone="no"?>
<!DOCTYPE svg PUBLIC "-//W3C//DTD SVG 1.1//EN" "http://www.w3.org/Graphics/SVG/1.1/DTD/svg11.dtd">
<svg width="100%" height="100%" viewBox="0 0 28 23" version="1.1" xmlns="http://www.w3.org/2000/svg" xmlns:xlink="http://www.w3.org/1999/xlink" xml:space="preserve" xmlns:serif="http://www.serif.com/" style="fill-rule:evenodd;clip-rule:evenodd;stroke-linejoin:round;stroke-miterlimit:2;">
    <g transform="matrix(1,0,0,1,-0.101209,-5.32907e-15)">
        <g transform="matrix(1,0,0,1,-264.257,-547.246)">
            <g transform="matrix(0.171042,0,0,0.171042,246.83,537.798)">
                <path class="has-background-primary" d="M190.43,155.402L179.085,136.493C179.085,136.493 185.583,125.662 185.583,125.662C186.289,124.487 186.309,123.023 185.637,121.828L178.992,110.016C178.326,108.831 177.079,108.09 175.72,108.071C174.361,108.052 173.094,108.758 172.394,109.924L157.63,134.53C156.905,135.738 156.905,137.248 157.63,138.457L187.158,187.669C187.856,188.832 189.118,189.537 190.474,189.522C191.83,189.506 193.076,188.772 193.747,187.593L223.865,134.673C224.54,133.487 224.53,132.031 223.84,130.855L203.386,95.99C203.386,95.99 211.069,83.187 211.069,83.187C211.069,83.187 233.76,83.187 233.76,83.187C233.76,83.187 221.528,103.573 221.528,103.573C220.793,104.797 220.803,106.329 221.554,107.543L228.523,118.815C229.223,119.947 230.463,120.633 231.794,120.624C233.126,120.615 234.356,119.913 235.041,118.772L264.569,69.559C265.276,68.38 265.294,66.912 264.617,65.715C263.94,64.519 262.671,63.78 261.296,63.78L202.241,63.78C200.901,63.78 199.659,64.483 198.969,65.632L181.961,93.979C181.246,95.17 181.235,96.656 181.933,97.858L203.09,134.303L190.43,155.402ZM123.477,83.869C122.103,83.869 120.834,84.609 120.157,85.805C119.479,87.002 119.498,88.47 120.205,89.649L144.366,129.916C145.055,131.066 146.297,131.769 147.638,131.769C148.978,131.769 150.22,131.066 150.91,129.916L192.249,61.018C192.956,59.84 192.974,58.371 192.297,57.175C191.62,55.979 190.351,55.239 188.976,55.239L106.299,55.239C104.924,55.239 103.656,55.979 102.978,57.175C102.301,58.371 102.32,59.84 103.027,61.018L110.211,72.991C110.9,74.141 112.142,74.844 113.483,74.844L161.09,74.844C161.09,74.844 147.638,97.265 147.638,97.265C147.638,97.265 140.712,85.722 140.712,85.722C140.022,84.573 138.78,83.869 137.44,83.869L123.477,83.869Z" style="fill:white;"/>
            </g>
        </g>
    </g>
</svg>
